<svg xmlns="http://www.w3.org/2000/svg" width="840" height="400" viewBox="0 0 840 400" role="img" aria-label="Jacek Yang — systems developer. 2186 contributions in the last year, best streak 29 days.">
  <defs>
    <clipPath id="round"><rect width="840" height="400" rx="14"/></clipPath>
    <pattern id="bg-grid-light" width="28" height="28" patternUnits="userSpaceOnUse">
      <path d="M 28 0 L 0 0 0 28" fill="none" stroke="#d7dde8" stroke-width="1" opacity="0.45"/>
    </pattern>
    <linearGradient id="sheen-light" x1="0" y1="0" x2="1" y2="0">
      <stop offset="0" stop-color="#0f766e" stop-opacity="0"/>
      <stop offset="0.5" stop-color="#0f766e" stop-opacity="0.9"/>
      <stop offset="1" stop-color="#0f766e" stop-opacity="0"/>
      <animate attributeName='x1' values='-1;1' dur='4.5s' repeatCount='indefinite'/>
      <animate attributeName='x2' values='0;2' dur='4.5s' repeatCount='indefinite'/>
    </linearGradient>
  </defs>
  <g clip-path="url(#round)">
    <rect width="840" height="400" fill="#f7f9fc"/>
    <rect width="840" height="400" fill="url(#bg-grid-light)"/>
    <rect width="840" height="400" fill="#ffffff" opacity="0.35"/>

    <!-- left rail: scanline sweep -->
    <rect x="0" y="0" width="3" height="400" fill="url(#sheen-light)" opacity="0.55"/>

    <!-- header -->
    <text x="26" y="52" font-family="ui-monospace,'Cascadia Code',Menlo,Consolas,monospace" font-size="27" font-weight="700" letter-spacing="2.5" fill="#0d1321">JACEK YANG</text>
    <text x="232" y="52" font-family="ui-monospace,'Cascadia Code',Menlo,Consolas,monospace" font-size="24" fill="#0369a1">&#9608;<animate attributeName="opacity" values="1;0;1" dur="1.1s" repeatCount="indefinite"/></text>
    <text x="26" y="72" font-family="ui-monospace,'Cascadia Code',Menlo,Consolas,monospace" font-size="12.5" letter-spacing="4.5" fill="#0f766e">SYSTEMS / NETWORK / SECURITY / AI</text>

    <!-- 1y activity sparkline -->
    <text x="34" y="86" font-family="ui-monospace,'Cascadia Code',Menlo,Consolas,monospace" font-size="10" letter-spacing="2" fill="#5a6577">COMMIT ACTIVITY — 52W</text>
    <path d="M 34.0,176 L 34.0,176.0 L 43.8,176.0 L 53.6,176.0 L 63.4,176.0 L 73.2,176.0 L 83.0,176.0 L 92.8,176.0 L 102.6,176.0 L 112.4,176.0 L 122.2,176.0 L 132.0,176.0 L 141.8,176.0 L 151.6,176.0 L 161.5,176.0 L 171.3,176.0 L 181.1,176.0 L 190.9,176.0 L 200.7,176.0 L 210.5,176.0 L 220.3,176.0 L 230.1,176.0 L 239.9,176.0 L 249.7,176.0 L 259.5,176.0 L 269.3,176.0 L 279.1,176.0 L 288.9,176.0 L 298.7,176.0 L 308.5,176.0 L 318.3,176.0 L 328.1,176.0 L 337.9,176.0 L 347.7,176.0 L 357.5,176.0 L 367.3,176.0 L 377.1,176.0 L 386.9,176.0 L 396.7,176.0 L 406.5,176.0 L 416.4,176.0 L 426.2,176.0 L 436.0,176.0 L 445.8,175.8 L 455.6,171.8 L 465.4,174.0 L 475.2,132.0 L 485.0,157.9 L 494.8,117.4 L 504.6,92.0 L 514.4,107.5 L 524.2,116.0 L 534.0,159.0 L 534.0,176 Z" fill="#0f766e" opacity="0.07"/><polyline points="34.0,176.0 43.8,176.0 53.6,176.0 63.4,176.0 73.2,176.0 83.0,176.0 92.8,176.0 102.6,176.0 112.4,176.0 122.2,176.0 132.0,176.0 141.8,176.0 151.6,176.0 161.5,176.0 171.3,176.0 181.1,176.0 190.9,176.0 200.7,176.0 210.5,176.0 220.3,176.0 230.1,176.0 239.9,176.0 249.7,176.0 259.5,176.0 269.3,176.0 279.1,176.0 288.9,176.0 298.7,176.0 308.5,176.0 318.3,176.0 328.1,176.0 337.9,176.0 347.7,176.0 357.5,176.0 367.3,176.0 377.1,176.0 386.9,176.0 396.7,176.0 406.5,176.0 416.4,176.0 426.2,176.0 436.0,176.0 445.8,175.8 455.6,171.8 465.4,174.0 475.2,132.0 485.0,157.9 494.8,117.4 504.6,92.0 514.4,107.5 524.2,116.0 534.0,159.0" fill="none" stroke="#0f766e" stroke-width="1.4" opacity="0.75"/><circle cx="534.0" cy="159.0" r="3" fill="#0369a1"><animate attributeName="r" values="3;4.6;3" dur="2s" repeatCount="indefinite"/></circle>

    <!-- contribution calendar -->
    <text x="420" y="194" text-anchor="middle" font-family="ui-monospace,'Cascadia Code',Menlo,Consolas,monospace" font-size="10" letter-spacing="2" fill="#5a6577">CONTRIBUTION FIELD — 12M</text>
    <rect x="310" y="194" width="17" height="17" rx="2.5" fill="#d7dde8"></rect><rect x="310" y="214" width="17" height="17" rx="2.5" fill="#d7dde8"></rect><rect x="310" y="234" width="17" height="17" rx="2.5" fill="#d7dde8"></rect><rect x="310" y="254" width="17" height="17" rx="2.5" fill="#d7dde8"></rect><rect x="310" y="274" width="17" height="17" rx="2.5" fill="#d7dde8"></rect><rect x="310" y="294" width="17" height="17" rx="2.5" fill="#d7dde8"></rect><rect x="310" y="314" width="17" height="17" rx="2.5" fill="#d7dde8"></rect><rect x="330" y="194" width="17" height="17" rx="2.5" fill="#d7dde8"></rect><rect x="330" y="214" width="17" height="17" rx="2.5" fill="#d7dde8"></rect><rect x="330" y="234" width="17" height="17" rx="2.5" fill="#d7dde8"></rect><rect x="330" y="254" width="17" height="17" rx="2.5" fill="#d7dde8"></rect><rect x="330" y="274" width="17" height="17" rx="2.5" fill="#d7dde8"></rect><rect x="330" y="294" width="17" height="17" rx="2.5" fill="#a5b4fc"></rect><rect x="330" y="314" width="17" height="17" rx="2.5" fill="#d7dde8"></rect><rect x="350" y="194" width="17" height="17" rx="2.5" fill="#0f766e"></rect><rect x="350" y="214" width="17" height="17" rx="2.5" fill="#0f766e"></rect><rect x="350" y="234" width="17" height="17" rx="2.5" fill="#0f766e"></rect><rect x="350" y="254" width="17" height="17" rx="2.5" fill="#d7dde8"></rect><rect x="350" y="274" width="17" height="17" rx="2.5" fill="#d7dde8"></rect><rect x="350" y="294" width="17" height="17" rx="2.5" fill="#d7dde8"></rect><rect x="350" y="314" width="17" height="17" rx="2.5" fill="#d7dde8"></rect><rect x="370" y="194" width="17" height="17" rx="2.5" fill="#d7dde8"></rect><rect x="370" y="214" width="17" height="17" rx="2.5" fill="#d7dde8"></rect><rect x="370" y="234" width="17" height="17" rx="2.5" fill="#d7dde8"></rect><rect x="370" y="254" width="17" height="17" rx="2.5" fill="#0f766e"></rect><rect x="370" y="274" width="17" height="17" rx="2.5" fill="#a5b4fc"></rect><rect x="370" y="294" width="17" height="17" rx="2.5" fill="#d7dde8"></rect><rect x="370" y="314" width="17" height="17" rx="2.5" fill="#0369a1"></rect><rect x="390" y="194" width="17" height="17" rx="2.5" fill="#0f766e"></rect><rect x="390" y="214" width="17" height="17" rx="2.5" fill="#0f766e"></rect><rect x="390" y="234" width="17" height="17" rx="2.5" fill="#0369a1"></rect><rect x="390" y="254" width="17" height="17" rx="2.5" fill="#0f766e"></rect><rect x="390" y="274" width="17" height="17" rx="2.5" fill="#0f766e"></rect><rect x="390" y="294" width="17" height="17" rx="2.5" fill="#0f766e"></rect><rect x="390" y="314" width="17" height="17" rx="2.5" fill="#0f766e"></rect><rect x="410" y="194" width="17" height="17" rx="2.5" fill="#d7dde8"></rect><rect x="410" y="214" width="17" height="17" rx="2.5" fill="#a5b4fc"></rect><rect x="410" y="234" width="17" height="17" rx="2.5" fill="#0369a1"></rect><rect x="410" y="254" width="17" height="17" rx="2.5" fill="#0f766e"></rect><rect x="410" y="274" width="17" height="17" rx="2.5" fill="#0f766e"></rect><rect x="410" y="294" width="17" height="17" rx="2.5" fill="#0369a1"></rect><rect x="410" y="314" width="17" height="17" rx="2.5" fill="#0369a1"></rect><rect x="430" y="194" width="17" height="17" rx="2.5" fill="#d7dde8"></rect><rect x="430" y="214" width="17" height="17" rx="2.5" fill="#d7dde8"></rect><rect x="430" y="234" width="17" height="17" rx="2.5" fill="#0f766e"></rect><rect x="430" y="254" width="17" height="17" rx="2.5" fill="#0f766e"></rect><rect x="430" y="274" width="17" height="17" rx="2.5" fill="#0f766e"></rect><rect x="430" y="294" width="17" height="17" rx="2.5" fill="#0f766e"></rect><rect x="430" y="314" width="17" height="17" rx="2.5" fill="#0f766e"></rect><rect x="450" y="194" width="17" height="17" rx="2.5" fill="#0f766e"></rect><rect x="450" y="214" width="17" height="17" rx="2.5" fill="#0f766e"></rect><rect x="450" y="234" width="17" height="17" rx="2.5" fill="#0f766e"></rect><rect x="450" y="254" width="17" height="17" rx="2.5" fill="#0f766e"></rect><rect x="450" y="274" width="17" height="17" rx="2.5" fill="#0f766e"></rect><rect x="450" y="294" width="17" height="17" rx="2.5" fill="#0f766e"></rect><rect x="450" y="314" width="17" height="17" rx="2.5" fill="#0f766e"></rect><rect x="470" y="194" width="17" height="17" rx="2.5" fill="#0f766e"></rect><rect x="470" y="214" width="17" height="17" rx="2.5" fill="#0f766e"></rect><rect x="470" y="234" width="17" height="17" rx="2.5" fill="#0f766e"></rect><rect x="470" y="254" width="17" height="17" rx="2.5" fill="#0f766e"></rect><rect x="470" y="274" width="17" height="17" rx="2.5" fill="#0f766e"></rect><rect x="470" y="294" width="17" height="17" rx="2.5" fill="#0f766e"></rect><rect x="470" y="314" width="17" height="17" rx="2.5" fill="#0f766e"></rect><rect x="490" y="194" width="17" height="17" rx="2.5" fill="#0f766e"></rect><rect x="490" y="214" width="17" height="17" rx="2.5" fill="#0f766e"></rect><rect x="490" y="234" width="17" height="17" rx="2.5" fill="#0f766e"></rect><rect x="490" y="254" width="17" height="17" rx="2.5" fill="#0f766e"></rect><rect x="490" y="274" width="17" height="17" rx="2.5" fill="#0f766e"></rect><rect x="490" y="294" width="17" height="17" rx="2.5" fill="#0f766e"></rect><rect x="490" y="314" width="17" height="17" rx="2.5" fill="#0f766e"></rect><rect x="510" y="194" width="17" height="17" rx="2.5" fill="#0f766e"></rect><rect x="510" y="214" width="17" height="17" rx="2.5" fill="#0f766e"></rect><rect x="510" y="234" width="17" height="17" rx="2.5" fill="#0f766e"></rect>

    <!-- stats row -->
    <text x="38" y="366" font-family="ui-monospace,'Cascadia Code',Menlo,Consolas,monospace" font-size="21" font-weight="700" fill="#0d1321">2186</text><text x="38" y="384" font-family="ui-monospace,'Cascadia Code',Menlo,Consolas,monospace" font-size="10.5" fill="#5a6577">contributions / 1y</text><text x="224" y="366" font-family="ui-monospace,'Cascadia Code',Menlo,Consolas,monospace" font-size="21" font-weight="700" fill="#0d1321">29</text><text x="224" y="384" font-family="ui-monospace,'Cascadia Code',Menlo,Consolas,monospace" font-size="10.5" fill="#5a6577">best streak (days)</text><text x="410" y="366" font-family="ui-monospace,'Cascadia Code',Menlo,Consolas,monospace" font-size="21" font-weight="700" fill="#0d1321">49</text><text x="410" y="384" font-family="ui-monospace,'Cascadia Code',Menlo,Consolas,monospace" font-size="10.5" fill="#5a6577">active days</text><text x="596" y="366" font-family="ui-monospace,'Cascadia Code',Menlo,Consolas,monospace" font-size="21" font-weight="700" fill="#0d1321">545</text><text x="596" y="384" font-family="ui-monospace,'Cascadia Code',Menlo,Consolas,monospace" font-size="10.5" fill="#5a6577">PRs + reviews</text><rect x="38" y="342" width="720" height="1" fill="#d7dde8"/>

    <!-- corner brackets -->
    <g stroke="#5a6577" stroke-width="1.5" opacity="0.6" fill="none">
      <path d="M 12 26 V 12 H 26"/><path d="M 814 12 H 828 V 26"/>
      <path d="M 828 374 V 388 H 814"/><path d="M 26 388 H 12 V 374"/>
    </g>
  </g>
</svg>