<svg xmlns="http://www.w3.org/2000/svg" width="840" height="400" viewBox="0 0 840 400" role="img" aria-label="Jacek Yang — systems developer. 2186 contributions in the last year, best streak 29 days.">
  <defs>
    <clipPath id="round"><rect width="840" height="400" rx="14"/></clipPath>
    <pattern id="bg-grid-dark" width="28" height="28" patternUnits="userSpaceOnUse">
      <path d="M 28 0 L 0 0 0 28" fill="none" stroke="#1a2230" stroke-width="1" opacity="0.45"/>
    </pattern>
    <linearGradient id="sheen-dark" x1="0" y1="0" x2="1" y2="0">
      <stop offset="0" stop-color="#5eead4" stop-opacity="0"/>
      <stop offset="0.5" stop-color="#5eead4" stop-opacity="0.9"/>
      <stop offset="1" stop-color="#5eead4" stop-opacity="0"/>
      <animate attributeName='x1' values='-1;1' dur='4.5s' repeatCount='indefinite'/>
      <animate attributeName='x2' values='0;2' dur='4.5s' repeatCount='indefinite'/>
    </linearGradient>
  </defs>
  <g clip-path="url(#round)">
    <rect width="840" height="400" fill="#05070d"/>
    <rect width="840" height="400" fill="url(#bg-grid-dark)"/>
    <rect width="840" height="400" fill="#0b0f18" opacity="0.35"/>

    <!-- left rail: scanline sweep -->
    <rect x="0" y="0" width="3" height="400" fill="url(#sheen-dark)" opacity="0.55"/>

    <!-- header -->
    <text x="26" y="52" font-family="ui-monospace,'Cascadia Code',Menlo,Consolas,monospace" font-size="27" font-weight="700" letter-spacing="2.5" fill="#e8edf5">JACEK YANG</text>
    <text x="232" y="52" font-family="ui-monospace,'Cascadia Code',Menlo,Consolas,monospace" font-size="24" fill="#4cc2ff">&#9608;<animate attributeName="opacity" values="1;0;1" dur="1.1s" repeatCount="indefinite"/></text>
    <text x="26" y="72" font-family="ui-monospace,'Cascadia Code',Menlo,Consolas,monospace" font-size="12.5" letter-spacing="4.5" fill="#5eead4">SYSTEMS / NETWORK / SECURITY / AI</text>

    <!-- 1y activity sparkline -->
    <text x="34" y="86" font-family="ui-monospace,'Cascadia Code',Menlo,Consolas,monospace" font-size="10" letter-spacing="2" fill="#8b95a7">COMMIT ACTIVITY — 52W</text>
    <path d="M 34.0,176 L 34.0,176.0 L 43.8,176.0 L 53.6,176.0 L 63.4,176.0 L 73.2,176.0 L 83.0,176.0 L 92.8,176.0 L 102.6,176.0 L 112.4,176.0 L 122.2,176.0 L 132.0,176.0 L 141.8,176.0 L 151.6,176.0 L 161.5,176.0 L 171.3,176.0 L 181.1,176.0 L 190.9,176.0 L 200.7,176.0 L 210.5,176.0 L 220.3,176.0 L 230.1,176.0 L 239.9,176.0 L 249.7,176.0 L 259.5,176.0 L 269.3,176.0 L 279.1,176.0 L 288.9,176.0 L 298.7,176.0 L 308.5,176.0 L 318.3,176.0 L 328.1,176.0 L 337.9,176.0 L 347.7,176.0 L 357.5,176.0 L 367.3,176.0 L 377.1,176.0 L 386.9,176.0 L 396.7,176.0 L 406.5,176.0 L 416.4,176.0 L 426.2,176.0 L 436.0,176.0 L 445.8,175.8 L 455.6,171.8 L 465.4,174.0 L 475.2,132.0 L 485.0,157.9 L 494.8,117.4 L 504.6,92.0 L 514.4,107.5 L 524.2,116.0 L 534.0,159.0 L 534.0,176 Z" fill="#5eead4" opacity="0.07"/><polyline points="34.0,176.0 43.8,176.0 53.6,176.0 63.4,176.0 73.2,176.0 83.0,176.0 92.8,176.0 102.6,176.0 112.4,176.0 122.2,176.0 132.0,176.0 141.8,176.0 151.6,176.0 161.5,176.0 171.3,176.0 181.1,176.0 190.9,176.0 200.7,176.0 210.5,176.0 220.3,176.0 230.1,176.0 239.9,176.0 249.7,176.0 259.5,176.0 269.3,176.0 279.1,176.0 288.9,176.0 298.7,176.0 308.5,176.0 318.3,176.0 328.1,176.0 337.9,176.0 347.7,176.0 357.5,176.0 367.3,176.0 377.1,176.0 386.9,176.0 396.7,176.0 406.5,176.0 416.4,176.0 426.2,176.0 436.0,176.0 445.8,175.8 455.6,171.8 465.4,174.0 475.2,132.0 485.0,157.9 494.8,117.4 504.6,92.0 514.4,107.5 524.2,116.0 534.0,159.0" fill="none" stroke="#5eead4" stroke-width="1.4" opacity="0.75"/><circle cx="534.0" cy="159.0" r="3" fill="#4cc2ff"><animate attributeName="r" values="3;4.6;3" dur="2s" repeatCount="indefinite"/></circle>

    <!-- contribution calendar -->
    <text x="420" y="194" text-anchor="middle" font-family="ui-monospace,'Cascadia Code',Menlo,Consolas,monospace" font-size="10" letter-spacing="2" fill="#8b95a7">CONTRIBUTION FIELD — 12M</text>
    <rect x="299" y="196" width="19" height="19" rx="2.5" fill="#1a2230"></rect><rect x="299" y="218" width="19" height="19" rx="2.5" fill="#1a2230"></rect><rect x="299" y="240" width="19" height="19" rx="2.5" fill="#1a2230"></rect><rect x="299" y="262" width="19" height="19" rx="2.5" fill="#1a2230"></rect><rect x="299" y="284" width="19" height="19" rx="2.5" fill="#1a2230"></rect><rect x="299" y="306" width="19" height="19" rx="2.5" fill="#1a2230"></rect><rect x="299" y="328" width="19" height="19" rx="2.5" fill="#1a2230"></rect><rect x="321" y="196" width="19" height="19" rx="2.5" fill="#1a2230"></rect><rect x="321" y="218" width="19" height="19" rx="2.5" fill="#1a2230"></rect><rect x="321" y="240" width="19" height="19" rx="2.5" fill="#1a2230"></rect><rect x="321" y="262" width="19" height="19" rx="2.5" fill="#1a2230"></rect><rect x="321" y="284" width="19" height="19" rx="2.5" fill="#1a2230"></rect><rect x="321" y="306" width="19" height="19" rx="2.5" fill="#7c8cf8"></rect><rect x="321" y="328" width="19" height="19" rx="2.5" fill="#1a2230"></rect><rect x="343" y="196" width="19" height="19" rx="2.5" fill="#5eead4"></rect><rect x="343" y="218" width="19" height="19" rx="2.5" fill="#5eead4"></rect><rect x="343" y="240" width="19" height="19" rx="2.5" fill="#5eead4"></rect><rect x="343" y="262" width="19" height="19" rx="2.5" fill="#1a2230"></rect><rect x="343" y="284" width="19" height="19" rx="2.5" fill="#1a2230"></rect><rect x="343" y="306" width="19" height="19" rx="2.5" fill="#1a2230"></rect><rect x="343" y="328" width="19" height="19" rx="2.5" fill="#1a2230"></rect><rect x="365" y="196" width="19" height="19" rx="2.5" fill="#1a2230"></rect><rect x="365" y="218" width="19" height="19" rx="2.5" fill="#1a2230"></rect><rect x="365" y="240" width="19" height="19" rx="2.5" fill="#1a2230"></rect><rect x="365" y="262" width="19" height="19" rx="2.5" fill="#5eead4"></rect><rect x="365" y="284" width="19" height="19" rx="2.5" fill="#7c8cf8"></rect><rect x="365" y="306" width="19" height="19" rx="2.5" fill="#1a2230"></rect><rect x="365" y="328" width="19" height="19" rx="2.5" fill="#4cc2ff"></rect><rect x="387" y="196" width="19" height="19" rx="2.5" fill="#5eead4"></rect><rect x="387" y="218" width="19" height="19" rx="2.5" fill="#5eead4"></rect><rect x="387" y="240" width="19" height="19" rx="2.5" fill="#4cc2ff"></rect><rect x="387" y="262" width="19" height="19" rx="2.5" fill="#5eead4"></rect><rect x="387" y="284" width="19" height="19" rx="2.5" fill="#5eead4"></rect><rect x="387" y="306" width="19" height="19" rx="2.5" fill="#5eead4"></rect><rect x="387" y="328" width="19" height="19" rx="2.5" fill="#5eead4"></rect><rect x="409" y="196" width="19" height="19" rx="2.5" fill="#1a2230"></rect><rect x="409" y="218" width="19" height="19" rx="2.5" fill="#7c8cf8"><animate attributeName="opacity" values="1;0.55;1" dur="3.2s" begin="0.00s" repeatCount="indefinite"/></rect><rect x="409" y="240" width="19" height="19" rx="2.5" fill="#4cc2ff"><animate attributeName="opacity" values="1;0.55;1" dur="3.2s" begin="0.35s" repeatCount="indefinite"/></rect><rect x="409" y="262" width="19" height="19" rx="2.5" fill="#5eead4"><animate attributeName="opacity" values="1;0.55;1" dur="3.2s" begin="0.70s" repeatCount="indefinite"/></rect><rect x="409" y="284" width="19" height="19" rx="2.5" fill="#5eead4"><animate attributeName="opacity" values="1;0.55;1" dur="3.2s" begin="1.05s" repeatCount="indefinite"/></rect><rect x="409" y="306" width="19" height="19" rx="2.5" fill="#4cc2ff"><animate attributeName="opacity" values="1;0.55;1" dur="3.2s" begin="1.40s" repeatCount="indefinite"/></rect><rect x="409" y="328" width="19" height="19" rx="2.5" fill="#4cc2ff"><animate attributeName="opacity" values="1;0.55;1" dur="3.2s" begin="1.75s" repeatCount="indefinite"/></rect><rect x="431" y="196" width="19" height="19" rx="2.5" fill="#1a2230"></rect><rect x="431" y="218" width="19" height="19" rx="2.5" fill="#1a2230"></rect><rect x="431" y="240" width="19" height="19" rx="2.5" fill="#5eead4"><animate attributeName="opacity" values="1;0.55;1" dur="3.2s" begin="2.80s" repeatCount="indefinite"/></rect><rect x="431" y="262" width="19" height="19" rx="2.5" fill="#5eead4"><animate attributeName="opacity" values="1;0.55;1" dur="3.2s" begin="0.00s" repeatCount="indefinite"/></rect><rect x="431" y="284" width="19" height="19" rx="2.5" fill="#5eead4"><animate attributeName="opacity" values="1;0.55;1" dur="3.2s" begin="0.35s" repeatCount="indefinite"/></rect><rect x="431" y="306" width="19" height="19" rx="2.5" fill="#5eead4"><animate attributeName="opacity" values="1;0.55;1" dur="3.2s" begin="0.70s" repeatCount="indefinite"/></rect><rect x="431" y="328" width="19" height="19" rx="2.5" fill="#5eead4"><animate attributeName="opacity" values="1;0.55;1" dur="3.2s" begin="1.05s" repeatCount="indefinite"/></rect><rect x="453" y="196" width="19" height="19" rx="2.5" fill="#5eead4"><animate attributeName="opacity" values="1;0.55;1" dur="3.2s" begin="1.40s" repeatCount="indefinite"/></rect><rect x="453" y="218" width="19" height="19" rx="2.5" fill="#5eead4"><animate attributeName="opacity" values="1;0.55;1" dur="3.2s" begin="1.75s" repeatCount="indefinite"/></rect><rect x="453" y="240" width="19" height="19" rx="2.5" fill="#5eead4"><animate attributeName="opacity" values="1;0.55;1" dur="3.2s" begin="2.10s" repeatCount="indefinite"/></rect><rect x="453" y="262" width="19" height="19" rx="2.5" fill="#5eead4"><animate attributeName="opacity" values="1;0.55;1" dur="3.2s" begin="2.45s" repeatCount="indefinite"/></rect><rect x="453" y="284" width="19" height="19" rx="2.5" fill="#5eead4"><animate attributeName="opacity" values="1;0.55;1" dur="3.2s" begin="2.80s" repeatCount="indefinite"/></rect><rect x="453" y="306" width="19" height="19" rx="2.5" fill="#5eead4"><animate attributeName="opacity" values="1;0.55;1" dur="3.2s" begin="0.00s" repeatCount="indefinite"/></rect><rect x="453" y="328" width="19" height="19" rx="2.5" fill="#5eead4"><animate attributeName="opacity" values="1;0.55;1" dur="3.2s" begin="0.35s" repeatCount="indefinite"/></rect><rect x="475" y="196" width="19" height="19" rx="2.5" fill="#5eead4"><animate attributeName="opacity" values="1;0.55;1" dur="3.2s" begin="0.70s" repeatCount="indefinite"/></rect><rect x="475" y="218" width="19" height="19" rx="2.5" fill="#5eead4"><animate attributeName="opacity" values="1;0.55;1" dur="3.2s" begin="1.05s" repeatCount="indefinite"/></rect><rect x="475" y="240" width="19" height="19" rx="2.5" fill="#5eead4"><animate attributeName="opacity" values="1;0.55;1" dur="3.2s" begin="1.40s" repeatCount="indefinite"/></rect><rect x="475" y="262" width="19" height="19" rx="2.5" fill="#5eead4"><animate attributeName="opacity" values="1;0.55;1" dur="3.2s" begin="1.75s" repeatCount="indefinite"/></rect><rect x="475" y="284" width="19" height="19" rx="2.5" fill="#5eead4"><animate attributeName="opacity" values="1;0.55;1" dur="3.2s" begin="2.10s" repeatCount="indefinite"/></rect><rect x="475" y="306" width="19" height="19" rx="2.5" fill="#5eead4"><animate attributeName="opacity" values="1;0.55;1" dur="3.2s" begin="2.45s" repeatCount="indefinite"/></rect><rect x="475" y="328" width="19" height="19" rx="2.5" fill="#5eead4"><animate attributeName="opacity" values="1;0.55;1" dur="3.2s" begin="2.80s" repeatCount="indefinite"/></rect><rect x="497" y="196" width="19" height="19" rx="2.5" fill="#5eead4"><animate attributeName="opacity" values="1;0.55;1" dur="3.2s" begin="0.00s" repeatCount="indefinite"/></rect><rect x="497" y="218" width="19" height="19" rx="2.5" fill="#5eead4"><animate attributeName="opacity" values="1;0.55;1" dur="3.2s" begin="0.35s" repeatCount="indefinite"/></rect><rect x="497" y="240" width="19" height="19" rx="2.5" fill="#5eead4"><animate attributeName="opacity" values="1;0.55;1" dur="3.2s" begin="0.70s" repeatCount="indefinite"/></rect><rect x="497" y="262" width="19" height="19" rx="2.5" fill="#5eead4"><animate attributeName="opacity" values="1;0.55;1" dur="3.2s" begin="1.05s" repeatCount="indefinite"/></rect><rect x="497" y="284" width="19" height="19" rx="2.5" fill="#5eead4"><animate attributeName="opacity" values="1;0.55;1" dur="3.2s" begin="1.40s" repeatCount="indefinite"/></rect><rect x="497" y="306" width="19" height="19" rx="2.5" fill="#5eead4"><animate attributeName="opacity" values="1;0.55;1" dur="3.2s" begin="1.75s" repeatCount="indefinite"/></rect><rect x="497" y="328" width="19" height="19" rx="2.5" fill="#5eead4"><animate attributeName="opacity" values="1;0.55;1" dur="3.2s" begin="2.10s" repeatCount="indefinite"/></rect><rect x="519" y="196" width="19" height="19" rx="2.5" fill="#5eead4"><animate attributeName="opacity" values="1;0.55;1" dur="3.2s" begin="2.45s" repeatCount="indefinite"/></rect><rect x="519" y="218" width="19" height="19" rx="2.5" fill="#5eead4"><animate attributeName="opacity" values="1;0.55;1" dur="3.2s" begin="2.80s" repeatCount="indefinite"/></rect><rect x="519" y="240" width="19" height="19" rx="2.5" fill="#5eead4"><animate attributeName="opacity" values="1;0.55;1" dur="3.2s" begin="0.00s" repeatCount="indefinite"/></rect>

    <!-- stats row -->
    <text x="38" y="352" font-family="ui-monospace,'Cascadia Code',Menlo,Consolas,monospace" font-size="21" font-weight="700" fill="#e8edf5">2186</text><text x="38" y="370" font-family="ui-monospace,'Cascadia Code',Menlo,Consolas,monospace" font-size="10.5" fill="#8b95a7">contributions / 1y</text><text x="224" y="352" font-family="ui-monospace,'Cascadia Code',Menlo,Consolas,monospace" font-size="21" font-weight="700" fill="#e8edf5">29</text><text x="224" y="370" font-family="ui-monospace,'Cascadia Code',Menlo,Consolas,monospace" font-size="10.5" fill="#8b95a7">best streak (days)</text><text x="410" y="352" font-family="ui-monospace,'Cascadia Code',Menlo,Consolas,monospace" font-size="21" font-weight="700" fill="#e8edf5">49</text><text x="410" y="370" font-family="ui-monospace,'Cascadia Code',Menlo,Consolas,monospace" font-size="10.5" fill="#8b95a7">active days</text><text x="596" y="352" font-family="ui-monospace,'Cascadia Code',Menlo,Consolas,monospace" font-size="21" font-weight="700" fill="#e8edf5">545</text><text x="596" y="370" font-family="ui-monospace,'Cascadia Code',Menlo,Consolas,monospace" font-size="10.5" fill="#8b95a7">PRs + reviews</text><rect x="38" y="330" width="720" height="1" fill="#1a2230"/>

    <!-- corner brackets -->
    <g stroke="#8b95a7" stroke-width="1.5" opacity="0.6" fill="none">
      <path d="M 12 26 V 12 H 26"/><path d="M 814 12 H 828 V 26"/>
      <path d="M 828 374 V 388 H 814"/><path d="M 26 388 H 12 V 374"/>
    </g>
  </g>
</svg>