<svg xmlns="http://www.w3.org/2000/svg" width="840" height="264" viewBox="0 0 840 264" role="img" aria-label="Jacek Yang — Systems &amp; Protocols Engineer. 2440 contributions in 1 year.">
  <defs>
    <clipPath id="card-clip-light"><rect width="840" height="264" rx="12"/></clipPath>
    <clipPath id="term-clip-light-0"><rect x="52" y="110" width="410" height="54"><animate attributeName="width" values="0;410;410;0;0;0" keyTimes="0;0.0750;0.2125;0.2500;0.9999;1" dur="16.0s" repeatCount="indefinite"/></rect></clipPath><clipPath id="term-clip-light-1"><rect x="52" y="110" width="0" height="54"><animate attributeName="width" values="0;0;0;410;410;0;0" keyTimes="0;0.2499;0.2500;0.3250;0.4625;0.5000;1" dur="16.0s" repeatCount="indefinite"/></rect></clipPath><clipPath id="term-clip-light-2"><rect x="52" y="110" width="0" height="54"><animate attributeName="width" values="0;0;0;410;410;0;0" keyTimes="0;0.4999;0.5000;0.5750;0.7125;0.7500;1" dur="16.0s" repeatCount="indefinite"/></rect></clipPath><clipPath id="term-clip-light-3"><rect x="52" y="110" width="0" height="54"><animate attributeName="width" values="0;0;0;410;410;0;0" keyTimes="0;0.7499;0.7500;0.8250;0.9625;1.0000;1" dur="16.0s" repeatCount="indefinite"/></rect></clipPath>
    <linearGradient id="glow-light" x1="0" y1="0" x2="0" y2="1">
      <stop offset="0%" stop-color="#059669" stop-opacity="0.10"/>
      <stop offset="100%" stop-color="#059669" stop-opacity="0"/>
    </linearGradient>
    <pattern id="dot-grid-light" width="20" height="20" patternUnits="userSpaceOnUse">
      <circle cx="2" cy="2" r="0.8" fill="#edf2f7"/>
    </pattern>
  </defs>

  <g clip-path="url(#card-clip-light)">
    <!-- Base Background -->
    <rect width="840" height="264" fill="#ffffff"/>
    <rect width="840" height="264" fill="url(#dot-grid-light)"/>
    <rect x="0" y="0" width="840" height="60" fill="url(#glow-light)"/>

    <!-- Subtle Outer Border -->
    <rect x="0.5" y="0.5" width="839" height="263" rx="11.5" fill="none" stroke="#e2e8f0" stroke-width="1"/>

    <!-- Top Status Bar -->
    <circle cx="34" cy="24" r="3.5" fill="#059669"><animate attributeName="opacity" values="1;0.35;1" dur="2.4s" repeatCount="indefinite"/></circle>
    <text x="46" y="27" font-family="ui-monospace, 'Cascadia Code', 'Fira Code', Menlo, Consolas, monospace" font-size="10" font-weight="700" letter-spacing="1.5" fill="#059669">ACTIVE NODE</text>
    <text x="142" y="27" font-family="ui-monospace, 'Cascadia Code', 'Fira Code', Menlo, Consolas, monospace" font-size="10" font-weight="500" letter-spacing="0.5" fill="#94a3b8">//</text>
    <text x="158" y="27" font-family="ui-monospace, 'Cascadia Code', 'Fira Code', Menlo, Consolas, monospace" font-size="9.5" font-weight="500" letter-spacing="0.5" fill="#64748b">RUST 1.85+ · WIRE PROTOCOLS · REVERSE ENG</text>

    <!-- Top Divider -->
    <line x1="26" y1="38" x2="480" y2="38" stroke="#edf2f7" stroke-width="1"/>

    <!-- Left Main: Identity -->
    <text x="26" y="66" font-family="ui-monospace, 'Cascadia Code', 'Fira Code', Menlo, Consolas, monospace" font-size="21" font-weight="700" letter-spacing="2" fill="#0f172a">JACEK YANG</text>
    <rect x="176" y="52" width="146" height="18" rx="4" fill="#f8fafc" stroke="#edf2f7" stroke-width="1"/>
    <text x="184" y="65" font-family="ui-monospace, 'Cascadia Code', 'Fira Code', Menlo, Consolas, monospace" font-size="9" font-weight="600" letter-spacing="1" fill="#0284c7">SYSTEMS &amp; PROTOCOLS</text>

    <text x="26" y="88" font-family="ui-monospace, 'Cascadia Code', 'Fira Code', Menlo, Consolas, monospace" font-size="11" font-weight="400" letter-spacing="0.2" fill="#64748b">Zero-copy proxy engines, headless IDA Pro agent servers &amp; DNS resolvers.</text>

    <!-- Left Main: Terminal Console Strip -->
    <rect x="26" y="104" width="454" height="64" rx="6" fill="#f8fafc" stroke="#e2e8f0" stroke-width="1"/>
    <rect x="40" y="120" width="7" height="13" fill="#059669"><animate attributeName="opacity" values="1;0;1" dur="0.85s" repeatCount="indefinite"/></rect>
    <g transform="translate(6, 0)"><g clip-path="url(#term-clip-light-0)" opacity="1"><animate attributeName="opacity" values="1;1;0;0;0;0" keyTimes="0;0.2125;0.2437;0.2500;0.9999;1" dur="16.0s" repeatCount="indefinite"/><text x="56" y="130" font-family="ui-monospace, 'Cascadia Code', 'Fira Code', Menlo, Consolas, monospace" font-size="11.5" font-weight="600" fill="#0f172a">cargo build --release -p rust-reality</text><text x="56" y="148" font-family="ui-monospace, 'Cascadia Code', 'Fira Code', Menlo, Consolas, monospace" font-size="9.5" font-weight="500" fill="#10b981">&gt; zero-copy splice // vless+reality</text></g><g clip-path="url(#term-clip-light-1)" opacity="0"><animate attributeName="opacity" values="0;0;1;1;0;0;0" keyTimes="0;0.2499;0.2500;0.4625;0.4938;0.5000;1" dur="16.0s" repeatCount="indefinite"/><text x="56" y="130" font-family="ui-monospace, 'Cascadia Code', 'Fira Code', Menlo, Consolas, monospace" font-size="11.5" font-weight="600" fill="#0f172a">reverse-mcp --headless ida-9.2</text><text x="56" y="148" font-family="ui-monospace, 'Cascadia Code', 'Fira Code', Menlo, Consolas, monospace" font-size="9.5" font-weight="500" fill="#38bdf8">&gt; headless idalib mcp server // 17 tools</text></g><g clip-path="url(#term-clip-light-2)" opacity="0"><animate attributeName="opacity" values="0;0;1;1;0;0;0" keyTimes="0;0.4999;0.5000;0.7125;0.7438;0.7500;1" dur="16.0s" repeatCount="indefinite"/><text x="56" y="130" font-family="ui-monospace, 'Cascadia Code', 'Fira Code', Menlo, Consolas, monospace" font-size="11.5" font-weight="600" fill="#0f172a">egressdns --listen 127.0.0.1:53</text><text x="56" y="148" font-family="ui-monospace, 'Cascadia Code', 'Fira Code', Menlo, Consolas, monospace" font-size="9.5" font-weight="500" fill="#818cf8">&gt; adaptive doh3/doq forwarder // dnssec</text></g><g clip-path="url(#term-clip-light-3)" opacity="0"><animate attributeName="opacity" values="0;0;1;1;0;0;0" keyTimes="0;0.7499;0.7500;0.9625;0.9938;1.0000;1" dur="16.0s" repeatCount="indefinite"/><text x="56" y="130" font-family="ui-monospace, 'Cascadia Code', 'Fira Code', Menlo, Consolas, monospace" font-size="11.5" font-weight="600" fill="#0f172a">cline-proxy --listen :8080</text><text x="56" y="148" font-family="ui-monospace, 'Cascadia Code', 'Fira Code', Menlo, Consolas, monospace" font-size="9.5" font-weight="500" fill="#f59e0b">&gt; multi-key sse gateway for claude code</text></g></g>

    <!-- Bottom Stats Pillar -->
    <line x1="26" y1="184" x2="480" y2="184" stroke="#edf2f7" stroke-width="1"/>

    <g transform="translate(26, 194)">
      <!-- Metric 1 -->
      <text x="0" y="18" font-family="ui-monospace, 'Cascadia Code', 'Fira Code', Menlo, Consolas, monospace" font-size="19" font-weight="700" fill="#0f172a">2,440</text>
      <text x="0" y="32" font-family="ui-monospace, 'Cascadia Code', 'Fira Code', Menlo, Consolas, monospace" font-size="9" font-weight="500" letter-spacing="0.8" fill="#64748b">CONTRIBUTIONS / 1Y</text>

      <!-- Metric 2 -->
      <text x="122" y="18" font-family="ui-monospace, 'Cascadia Code', 'Fira Code', Menlo, Consolas, monospace" font-size="19" font-weight="700" fill="#0f172a">36d</text>
      <text x="122" y="32" font-family="ui-monospace, 'Cascadia Code', 'Fira Code', Menlo, Consolas, monospace" font-size="9" font-weight="500" letter-spacing="0.8" fill="#64748b">BEST STREAK</text>

      <!-- Metric 3 -->
      <text x="226" y="18" font-family="ui-monospace, 'Cascadia Code', 'Fira Code', Menlo, Consolas, monospace" font-size="19" font-weight="700" fill="#0f172a">57d</text>
      <text x="226" y="32" font-family="ui-monospace, 'Cascadia Code', 'Fira Code', Menlo, Consolas, monospace" font-size="9" font-weight="500" letter-spacing="0.8" fill="#64748b">ACTIVE DAYS</text>

      <!-- Metric 4 -->
      <text x="328" y="18" font-family="ui-monospace, 'Cascadia Code', 'Fira Code', Menlo, Consolas, monospace" font-size="19" font-weight="700" fill="#059669">624</text>
      <text x="328" y="32" font-family="ui-monospace, 'Cascadia Code', 'Fira Code', Menlo, Consolas, monospace" font-size="9" font-weight="500" letter-spacing="0.8" fill="#64748b">PRS + REVIEWS</text>
    </g>

    <!-- Right Panel: Telemetry Radar Box -->
    <rect x="506" y="18" width="310" height="228" rx="8" fill="#f1f5f9" stroke="#e2e8f0" stroke-width="1"/>

    <!-- Radar Header -->
    <text x="522" y="38" font-family="ui-monospace, 'Cascadia Code', 'Fira Code', Menlo, Consolas, monospace" font-size="9.5" font-weight="700" letter-spacing="1.5" fill="#0f172a">ACTIVITY MATRIX</text>
    <text x="798" y="38" text-anchor="end" font-family="ui-monospace, 'Cascadia Code', 'Fira Code', Menlo, Consolas, monospace" font-size="8.5" font-weight="600" letter-spacing="1" fill="#059669">14-WEEK PULSE</text>
    <line x1="518" y1="48" x2="804" y2="48" stroke="#edf2f7" stroke-width="1"/>

    <!-- Contribution Grid -->
    <g transform="translate(-4, -6)">
      <rect x="526" y="68" width="12" height="12" rx="2.5" fill="#e2e8f0"></rect><rect x="526" y="84" width="12" height="12" rx="2.5" fill="#e2e8f0"></rect><rect x="526" y="100" width="12" height="12" rx="2.5" fill="#e2e8f0"></rect><rect x="526" y="116" width="12" height="12" rx="2.5" fill="#e2e8f0"></rect><rect x="526" y="132" width="12" height="12" rx="2.5" fill="#e2e8f0"></rect><rect x="526" y="148" width="12" height="12" rx="2.5" fill="#e2e8f0"></rect><rect x="526" y="164" width="12" height="12" rx="2.5" fill="#e2e8f0"></rect><rect x="542" y="68" width="12" height="12" rx="2.5" fill="#e2e8f0"></rect><rect x="542" y="84" width="12" height="12" rx="2.5" fill="#e2e8f0"></rect><rect x="542" y="100" width="12" height="12" rx="2.5" fill="#e2e8f0"></rect><rect x="542" y="116" width="12" height="12" rx="2.5" fill="#e2e8f0"></rect><rect x="542" y="132" width="12" height="12" rx="2.5" fill="#e2e8f0"></rect><rect x="542" y="148" width="12" height="12" rx="2.5" fill="#e2e8f0"></rect><rect x="542" y="164" width="12" height="12" rx="2.5" fill="#e2e8f0"></rect><rect x="558" y="68" width="12" height="12" rx="2.5" fill="#e2e8f0"></rect><rect x="558" y="84" width="12" height="12" rx="2.5" fill="#e2e8f0"></rect><rect x="558" y="100" width="12" height="12" rx="2.5" fill="#e2e8f0"></rect><rect x="558" y="116" width="12" height="12" rx="2.5" fill="#e2e8f0"></rect><rect x="558" y="132" width="12" height="12" rx="2.5" fill="#e2e8f0"></rect><rect x="558" y="148" width="12" height="12" rx="2.5" fill="#e2e8f0"></rect><rect x="558" y="164" width="12" height="12" rx="2.5" fill="#e2e8f0"></rect><rect x="574" y="68" width="12" height="12" rx="2.5" fill="#e2e8f0"></rect><rect x="574" y="84" width="12" height="12" rx="2.5" fill="#e2e8f0"></rect><rect x="574" y="100" width="12" height="12" rx="2.5" fill="#e2e8f0"></rect><rect x="574" y="116" width="12" height="12" rx="2.5" fill="#e2e8f0"></rect><rect x="574" y="132" width="12" height="12" rx="2.5" fill="#e2e8f0"></rect><rect x="574" y="148" width="12" height="12" rx="2.5" fill="#bae6fd"></rect><rect x="574" y="164" width="12" height="12" rx="2.5" fill="#e2e8f0"></rect><rect x="590" y="68" width="12" height="12" rx="2.5" fill="#38bdf8"></rect><rect x="590" y="84" width="12" height="12" rx="2.5" fill="#38bdf8"></rect><rect x="590" y="100" width="12" height="12" rx="2.5" fill="#38bdf8"></rect><rect x="590" y="116" width="12" height="12" rx="2.5" fill="#e2e8f0"></rect><rect x="590" y="132" width="12" height="12" rx="2.5" fill="#e2e8f0"></rect><rect x="590" y="148" width="12" height="12" rx="2.5" fill="#e2e8f0"></rect><rect x="590" y="164" width="12" height="12" rx="2.5" fill="#e2e8f0"></rect><rect x="606" y="68" width="12" height="12" rx="2.5" fill="#e2e8f0"></rect><rect x="606" y="84" width="12" height="12" rx="2.5" fill="#e2e8f0"></rect><rect x="606" y="100" width="12" height="12" rx="2.5" fill="#bae6fd"></rect><rect x="606" y="116" width="12" height="12" rx="2.5" fill="#7dd3fc"></rect><rect x="606" y="132" width="12" height="12" rx="2.5" fill="#bae6fd"></rect><rect x="606" y="148" width="12" height="12" rx="2.5" fill="#e2e8f0"></rect><rect x="606" y="164" width="12" height="12" rx="2.5" fill="#7dd3fc"></rect><rect x="622" y="68" width="12" height="12" rx="2.5" fill="#059669"></rect><rect x="622" y="84" width="12" height="12" rx="2.5" fill="#059669"></rect><rect x="622" y="100" width="12" height="12" rx="2.5" fill="#7dd3fc"></rect><rect x="622" y="116" width="12" height="12" rx="2.5" fill="#38bdf8"></rect><rect x="622" y="132" width="12" height="12" rx="2.5" fill="#059669"></rect><rect x="622" y="148" width="12" height="12" rx="2.5" fill="#059669"></rect><rect x="622" y="164" width="12" height="12" rx="2.5" fill="#059669"></rect><rect x="638" y="68" width="12" height="12" rx="2.5" fill="#e2e8f0"></rect><rect x="638" y="84" width="12" height="12" rx="2.5" fill="#bae6fd"></rect><rect x="638" y="100" width="12" height="12" rx="2.5" fill="#7dd3fc"></rect><rect x="638" y="116" width="12" height="12" rx="2.5" fill="#059669"></rect><rect x="638" y="132" width="12" height="12" rx="2.5" fill="#059669"></rect><rect x="638" y="148" width="12" height="12" rx="2.5" fill="#7dd3fc"></rect><rect x="638" y="164" width="12" height="12" rx="2.5" fill="#7dd3fc"></rect><rect x="654" y="68" width="12" height="12" rx="2.5" fill="#e2e8f0"></rect><rect x="654" y="84" width="12" height="12" rx="2.5" fill="#e2e8f0"></rect><rect x="654" y="100" width="12" height="12" rx="2.5" fill="#059669"></rect><rect x="654" y="116" width="12" height="12" rx="2.5" fill="#059669"></rect><rect x="654" y="132" width="12" height="12" rx="2.5" fill="#059669"></rect><rect x="654" y="148" width="12" height="12" rx="2.5" fill="#059669"></rect><rect x="654" y="164" width="12" height="12" rx="2.5" fill="#059669"></rect><rect x="670" y="68" width="12" height="12" rx="2.5" fill="#059669"></rect><rect x="670" y="84" width="12" height="12" rx="2.5" fill="#059669"></rect><rect x="670" y="100" width="12" height="12" rx="2.5" fill="#059669"></rect><rect x="670" y="116" width="12" height="12" rx="2.5" fill="#059669"></rect><rect x="670" y="132" width="12" height="12" rx="2.5" fill="#059669"></rect><rect x="670" y="148" width="12" height="12" rx="2.5" fill="#059669"></rect><rect x="670" y="164" width="12" height="12" rx="2.5" fill="#059669"></rect><rect x="686" y="68" width="12" height="12" rx="2.5" fill="#059669"></rect><rect x="686" y="84" width="12" height="12" rx="2.5" fill="#059669"></rect><rect x="686" y="100" width="12" height="12" rx="2.5" fill="#059669"></rect><rect x="686" y="116" width="12" height="12" rx="2.5" fill="#059669"></rect><rect x="686" y="132" width="12" height="12" rx="2.5" fill="#059669"></rect><rect x="686" y="148" width="12" height="12" rx="2.5" fill="#059669"></rect><rect x="686" y="164" width="12" height="12" rx="2.5" fill="#059669"></rect><rect x="702" y="68" width="12" height="12" rx="2.5" fill="#059669"></rect><rect x="702" y="84" width="12" height="12" rx="2.5" fill="#059669"></rect><rect x="702" y="100" width="12" height="12" rx="2.5" fill="#059669"></rect><rect x="702" y="116" width="12" height="12" rx="2.5" fill="#059669"></rect><rect x="702" y="132" width="12" height="12" rx="2.5" fill="#059669"></rect><rect x="702" y="148" width="12" height="12" rx="2.5" fill="#059669"></rect><rect x="702" y="164" width="12" height="12" rx="2.5" fill="#059669"></rect><rect x="718" y="68" width="12" height="12" rx="2.5" fill="#059669"></rect><rect x="718" y="84" width="12" height="12" rx="2.5" fill="#059669"></rect><rect x="718" y="100" width="12" height="12" rx="2.5" fill="#059669"></rect><rect x="718" y="116" width="12" height="12" rx="2.5" fill="#059669"></rect><rect x="718" y="132" width="12" height="12" rx="2.5" fill="#059669"></rect><rect x="718" y="148" width="12" height="12" rx="2.5" fill="#059669"></rect><rect x="718" y="164" width="12" height="12" rx="2.5" fill="#059669"></rect><rect x="734" y="68" width="12" height="12" rx="2.5" fill="#059669"></rect><rect x="734" y="84" width="12" height="12" rx="2.5" fill="#059669"></rect><rect x="734" y="100" width="12" height="12" rx="2.5" fill="#38bdf8"></rect>
    </g>

    <!-- Day Indicators -->
    <text x="798" y="72" text-anchor="end" font-family="ui-monospace, 'Cascadia Code', 'Fira Code', Menlo, Consolas, monospace" font-size="8" fill="#94a3b8">MON</text>
    <text x="798" y="104" text-anchor="end" font-family="ui-monospace, 'Cascadia Code', 'Fira Code', Menlo, Consolas, monospace" font-size="8" fill="#94a3b8">WED</text>
    <text x="798" y="136" text-anchor="end" font-family="ui-monospace, 'Cascadia Code', 'Fira Code', Menlo, Consolas, monospace" font-size="8" fill="#94a3b8">FRI</text>
    <text x="798" y="168" text-anchor="end" font-family="ui-monospace, 'Cascadia Code', 'Fira Code', Menlo, Consolas, monospace" font-size="8" fill="#94a3b8">SUN</text>

    <!-- Radar Footer Metrics -->
    <line x1="518" y1="184" x2="804" y2="184" stroke="#edf2f7" stroke-width="1"/>

    <g transform="translate(522, 194)">
      <text x="0" y="14" font-family="ui-monospace, 'Cascadia Code', 'Fira Code', Menlo, Consolas, monospace" font-size="8.5" font-weight="500" letter-spacing="0.5" fill="#64748b">PEAK DAILY COMMITS</text>
      <text x="0" y="30" font-family="ui-monospace, 'Cascadia Code', 'Fira Code', Menlo, Consolas, monospace" font-size="13" font-weight="700" fill="#0f172a">127 commits</text>

      <text x="276" y="14" text-anchor="end" font-family="ui-monospace, 'Cascadia Code', 'Fira Code', Menlo, Consolas, monospace" font-size="8.5" font-weight="500" letter-spacing="0.5" fill="#64748b">SYSTEM VELOCITY</text>
      <text x="276" y="30" text-anchor="end" font-family="ui-monospace, 'Cascadia Code', 'Fira Code', Menlo, Consolas, monospace" font-size="13" font-weight="700" fill="#0284c7">1,650 dispatched</text>
    </g>
  </g>
</svg>